# xmcd CD database file
#
# Track frame offsets:
#	150
#	23100
#	39851
#	56960
#	75752
#	99138
#	131167
#	149840
#	171398
#	185669
#	202868
#	224477
#	245643
#	259038
#
# Disc length: 3619 seconds
#
# Revision: 2
# Processed by: cddbd v1.4PL0 Copyright (c) Steve Scherf et al.
# Submitted via: CDex 1.50Beta7
#
DISCID=c90e210e
DTITLE=Howlin' Wolf - The Red Rooster
DYEAR=1900
DGENRE=Blues
TTITLE0=The Red Rooster
TTITLE1=Shake It For Me
TTITLE2=Dust My Broom
TTITLE3=Howlin' For My Darlin
TTITLE4=Evil
TTITLE5=Forty Four
TTITLE6=Love Me
TTITLE7=I Didn't Mean To Hurt Your Feelings
TTITLE8=Rockin' The Blues
TTITLE9=All My Life
TTITLE10=Goin' Down Slow
TTITLE11=Blind Love
TTITLE12=My Baby Walked Off
TTITLE13=Bluebird
EXTD=
EXTT0=
EXTT1=
EXTT2=
EXTT3=
EXTT4=
EXTT5=
EXTT6=
EXTT7=
EXTT8=
EXTT9=
EXTT10=
EXTT11=
EXTT12=
EXTT13=
PLAYORDER=
